<svg width="256" height="256" viewBox="0 0 256 256" fill="none" xmlns="http://www.w3.org/2000/svg">
  <circle cx="128" cy="128" r="128" fill="#F7931A"/>
  <path d="M173.61 109.527C171.058 93.1895 156.953 86.9415 138.821 90.2295L132.952 70.4535L120.519 73.5255L126.266 92.8935C122.691 93.8175 119.056 94.7175 115.443 95.6175L109.671 76.1215L97.2466 79.1935L103.12 98.9635C100.166 99.6835 97.2466 100.3975 94.4056 101.0735L77.3336 105.1955L80.6216 118.6055C80.6216 118.6055 89.6376 116.2095 89.5256 116.3775C94.5616 115.1255 95.9256 118.3255 96.6216 120.7895L103.287 143.2975C103.551 143.2495 103.895 143.1975 104.275 143.1075C103.959 143.1975 103.623 143.2735 103.271 143.3495L112.055 173.5975C112.247 174.9855 111.839 177.3855 108.247 178.2295C108.399 178.3495 99.335 180.5255 99.335 180.5255L101.119 195.0535L118.983 190.7575L124.903 210.8055L137.335 207.7335L131.463 187.9815C135.183 187.0095 138.775 186.1095 142.271 185.1455L148.095 204.7495L160.527 201.6775L154.607 181.6535C178.127 176.0775 193.823 167.5935 190.719 145.1935C188.199 127.2055 177.467 122.0055 163.031 120.6415C173.227 117.7175 177.067 111.4135 173.607 109.5295L173.61 109.527ZM164.415 162.6775C168.543 180.6295 139.527 184.5895 129.871 187.0775L122.119 160.9255C131.775 158.4535 160.135 143.9935 164.415 162.6775ZM150.295 126.7655C154.079 143.1575 129.407 146.5655 121.271 148.6855L114.199 124.7215C122.335 122.6015 146.383 109.7215 150.295 126.7655Z" fill="white"/>
</svg> 