<svg width="256" height="256" viewBox="0 0 256 256" fill="none" xmlns="http://www.w3.org/2000/svg">
  <circle cx="128" cy="128" r="128" fill="#000000"/>
  <path d="M196.203 106.915C196.203 97.6492 187.858 90.168 177.473 90.168C171.866 90.168 166.823 92.4785 163.487 96.1698L117.782 69.9864V69.9601C117.782 69.9601 117.756 69.9601 117.756 69.9338C117.756 63.3525 112.292 58 105.58 58C99.9719 58 95.1696 61.6387 94.1133 66.5048L56.8611 141.252V141.305C51.6881 143.773 48.0566 149.114 48.0566 155.379C48.0566 164.644 56.4016 172.126 66.7868 172.126C72.554 172.126 77.7531 169.605 80.9831 165.545L126.506 191.649C126.902 197.284 131.699 201.782 137.493 201.782C143.287 201.782 148.111 197.257 148.48 191.597L196.044 152.91V152.884C196.15 152.305 196.203 151.726 196.203 151.148V106.915ZM177.499 125.444V134.391L173.025 138.083L168.551 134.391V116.497L173.025 112.806L177.499 116.497V125.444ZM86.7678 172.126C84.4711 172.126 82.1744 171.679 80.0833 170.784V170.811L77.7004 166.671L77.7265 162.429L81.8879 161.35L120.451 137.95L121.138 142.649V147.225L86.7678 172.126ZM137.493 187.063C135.223 187.063 133.135 186.248 131.514 184.96L132.597 181.584V176.401L136.728 176.006L142.04 178.685L143.124 183.25L140.954 185.587C139.996 186.511 138.798 187.063 137.493 187.063ZM148.48 177.058H148.454L143.1 174.089V164.855L148.454 160.771L153.807 164.855V173.93L148.48 177.058ZM158.683 98.321C158.683 92.2656 163.461 87.3207 169.359 87.3207C175.256 87.3207 180.061 92.2656 180.061 98.321C180.061 104.377 175.256 109.322 169.359 109.322C163.435 109.322 158.683 104.377 158.683 98.321Z" fill="white"/>
</svg> 