<svg width="256" height="256" viewBox="0 0 256 256" fill="none" xmlns="http://www.w3.org/2000/svg">
  <circle cx="128" cy="128" r="128" fill="#F7931A"/>
  <path d="M128 202C168.317 202 201 169.317 201 129C201 88.6832 168.317 56 128 56C87.6832 56 55 88.6832 55 129C55 169.317 87.6832 202 128 202Z" fill="white"/>
  <path d="M144.462 146.538H120.461V156.462H136.538V164.385H120.461V180H108.461V164.385H96.4609V156.462H108.461V146.538H96.4609V138.615H108.461V88H144.462C158.154 88 169.308 99.1538 169.308 112.846C169.308 126.538 158.154 137.692 144.462 137.692C151.846 137.692 158.615 139.692 161.846 142.923C165.077 146.154 163.462 154.077 158.615 154.077C153.769 154.077 148.615 150.769 144.462 146.538ZM120.461 96.7692V129.846H136.538C148.769 129.846 156.692 122.308 156.692 112.846C156.692 103.385 148.769 96.7692 136.538 96.7692H120.461Z" fill="#F7931A"/>
</svg> 