<svg width="256" height="256" viewBox="0 0 256 256" fill="none" xmlns="http://www.w3.org/2000/svg">
  <circle cx="128" cy="128" r="128" fill="#2775CA"/>
  <path d="M128.04 198C167.34 198 199.14 166.2 199.14 126.9C199.14 87.6 167.34 55.8 128.04 55.8C89.9897 55.8 58.6797 87.06 57.5997 125.46H106.98V114.66C106.98 110.34 110.46 106.86 114.78 106.86H141.48C145.8 106.86 149.28 110.34 149.28 114.66V139.14C149.28 143.46 145.8 146.94 141.48 146.94H114.78C110.46 146.94 106.98 143.46 106.98 139.14V128.34H57.5997C58.6797 166.74 89.9897 198 128.04 198Z" fill="white"/>
  <path d="M135.36 131.94C135.36 134.34 133.5 136.2 131.1 136.2H125.1C122.7 136.2 120.84 134.34 120.84 131.94V121.86C120.84 119.46 122.7 117.6 125.1 117.6H131.1C133.5 117.6 135.36 119.46 135.36 121.86V131.94Z" fill="#2775CA"/>
</svg> 