<svg width="256" height="256" viewBox="0 0 256 256" fill="none" xmlns="http://www.w3.org/2000/svg">
  <circle cx="128" cy="128" r="128" fill="#26A17B"/>
  <path d="M127.04 55.04V87.04H172.88V100.8H88.8V87.04H127.04V55.04H127.04ZM150.56 111.44C171.52 111.44 196.96 115.36 196.96 130.72C196.96 146.08 171.44 150.24 150.56 150.24C129.68 150.24 104.08 146.24 104.08 130.96C104.08 115.68 129.6 111.44 150.56 111.44ZM150.56 146.4C170.64 146.4 185.68 142.72 185.68 130.8C185.68 118.88 170.64 115.28 150.56 115.28C130.48 115.28 115.36 118.96 115.36 130.88C115.36 142.8 130.48 146.4 150.56 146.4Z" fill="white"/>
</svg> 